HIERARCHY
ROOT Hips
{
	OFFSET 0.00000 0.00000 0.00000
	CHANNELS 6 Xposition Yposition Zposition Zrotation Yrotation Xrotation 
	JOINT LHipJoint
	{
		OFFSET 0 0 0
		CHANNELS 3 Zrotation Yrotation Xrotation
		JOINT LeftUpLeg
		{
			OFFSET 1.37959 -1.78713 0.86582
			CHANNELS 3 Zrotation Yrotation Xrotation
			JOINT LeftLeg
			{
				OFFSET 2.54611 -6.99539 0.00000
				CHANNELS 3 Zrotation Yrotation Xrotation
				JOINT LeftFoot
				{
					OFFSET 2.59951 -7.14211 0.00000
					CHANNELS 3 Zrotation Yrotation Xrotation
					JOINT LeftToeBase
					{
						OFFSET 0.18493 -0.50810 1.96120
						CHANNELS 3 Zrotation Yrotation Xrotation
						End Site
						{
							OFFSET 0.00000 -0.00000 1.02054
						}
					}
				}
			}
		}
	}
	JOINT RHipJoint
	{
		OFFSET 0 0 0
		CHANNELS 3 Zrotation Yrotation Xrotation
		JOINT RightUpLeg
		{
			OFFSET -1.33564 -1.78713 0.86582
			CHANNELS 3 Zrotation Yrotation Xrotation
			JOINT RightLeg
			{
				OFFSET -2.52705 -6.94302 0.00000
				CHANNELS 3 Zrotation Yrotation Xrotation
				JOINT RightFoot
				{
					OFFSET -2.55964 -7.03257 0.00000
					CHANNELS 3 Zrotation Yrotation Xrotation
					JOINT RightToeBase
					{
						OFFSET -0.25804 -0.70896 2.12109
						CHANNELS 3 Zrotation Yrotation Xrotation
						End Site
						{
							OFFSET -0.00000 -0.00000 1.11821
						}
					}
				}
			}
		}
	}
	JOINT LowerBack
	{
		OFFSET 0 0 0
		CHANNELS 3 Zrotation Yrotation Xrotation
		JOINT Spine
		{
			OFFSET -0.02031 2.24248 -0.18900
			CHANNELS 3 Zrotation Yrotation Xrotation
			JOINT Spine1
			{
				OFFSET 0.08342 2.24689 -0.03799
				CHANNELS 3 Zrotation Yrotation Xrotation
				JOINT Neck
				{
					OFFSET 0 0 0
					CHANNELS 3 Zrotation Yrotation Xrotation
					JOINT Neck1
					{
						OFFSET -0.11607 1.55844 0.24628
						CHANNELS 3 Zrotation Yrotation Xrotation
						JOINT Head
						{
							OFFSET 0.06877 1.60174 -0.17013
							CHANNELS 3 Zrotation Yrotation Xrotation
							End Site
							{
								OFFSET 0.03358 1.61266 -0.08543
							}
						}
					}
				}
				JOINT LeftShoulder
				{
					OFFSET 0 0 0
					CHANNELS 3 Zrotation Yrotation Xrotation
					JOINT LeftArm
					{
						OFFSET 3.47537 0.55866 -0.72348
						CHANNELS 3 Zrotation Yrotation Xrotation
						JOINT LeftForeArm
						{
							OFFSET 5.38154 -0.00000 0.00000
							CHANNELS 3 Zrotation Yrotation Xrotation
							JOINT LeftHand
							{
								OFFSET 3.33312 -0.00000 0.00000
								CHANNELS 3 Zrotation Yrotation Xrotation
								JOINT LeftFingerBase
								{
									OFFSET 0 0 0
									CHANNELS 3 Zrotation Yrotation Xrotation
									JOINT LeftHandIndex1
									{
										OFFSET 0.71079 -0.00000 0.00000
										CHANNELS 3 Zrotation Yrotation Xrotation
										End Site
										{
											OFFSET 0.57306 -0.00000 0.00000
										}
									}
								}
								JOINT LThumb
								{
									OFFSET 0 0 0
									CHANNELS 3 Zrotation Yrotation Xrotation
									End Site
									{
										OFFSET 0.58181 -0.00000 0.58181
									}
								}
							}
						}
					}
				}
				JOINT RightShoulder
				{
					OFFSET 0 0 0
					CHANNELS 3 Zrotation Yrotation Xrotation
					JOINT RightArm
					{
						OFFSET -3.27844 0.90739 -0.35708
						CHANNELS 3 Zrotation Yrotation Xrotation
						JOINT RightForeArm
						{
							OFFSET -5.16954 -0.00000 0.00000
							CHANNELS 3 Zrotation Yrotation Xrotation
							JOINT RightHand
							{
								OFFSET -3.38287 -0.00000 0.00000
								CHANNELS 3 Zrotation Yrotation Xrotation
								JOINT RightFingerBase
								{
									OFFSET 0 0 0
									CHANNELS 3 Zrotation Yrotation Xrotation
									JOINT RightHandIndex1
									{
										OFFSET -0.81797 -0.00000 0.00000
										CHANNELS 3 Zrotation Yrotation Xrotation
										End Site
										{
											OFFSET -0.65947 -0.00000 0.00000
										}
									}
								}
								JOINT RThumb
								{
									OFFSET 0 0 0
									CHANNELS 3 Zrotation Yrotation Xrotation
									End Site
									{
										OFFSET -0.66953 -0.00000 0.66953
									}
								}
							}
						}
					}
				}
			}
		}
	}
}
MOTION
Frames: 12
Frame Time: 0.166667
0.00 0.00 0.00 0 0 0 0 0 0 -21 0 0 0 0 0 0 0 0 0 0 0 0 0 0 21 0 0 0 0 0 0 0 0 0 0 0 0 0 0 0 0 0 0 0 0 0 0 -16 0 0 21 0 0 11 0 0 0 -8 0 0 0 0 0 0 0 0 0 0 0 0 0 0 0 0 0 0 0 0 8 0 0 0 0 0 0 0 0 0 0 0 0 0 0 0 0 0
0.00 0.00 0.00 -184.5510 3.8395 -176.4680 0.0000 0.0000 0.0000 -28.0947 2.8450 -3.4494 1.3783 7.4292 20.9933 0.9295 -5.5059 -17.2061 0.5482 -4.7432 -13.1776 0.0000 0.0000 0.0000 14.8650 6.8424 -30.7281 -4.1488 -12.3558 37.0024 -0.0647 -10.3234 -15.6781 -0.1824 -2.7509 7.5861 -4.2637 -1.9162 1.6297 0.1319 -2.3874 3.7471 2.4948 -1.2498 3.1346 -9.7469 -0.8536 -9.9334 -0.7593 4.7011 32.6686 2.2664 1.9217 12.3878 0.0000 0.0000 0.0000 -57.6055 6.7613 70.2395 30.1871 -41.0532 -11.5323 -0.0000 -0.0000 1.0348 1.0902 34.9612 0.6248 -7.1250 0.0000 -0.0000 -37.4406 60.8785 -15.7354 0.0000 0.0000 0.0000 87.2416 -0.9549 15.4611 -18.4281 28.7019 -4.7531 0.0000 -0.0000 -11.8602 -12.5786 18.5402 -4.0583 7.1250 -0.0000 -0.0000 10.1424 -11.2422 8.1017
0.00 0.00 0.00 -185.5210 2.8883 -175.4670 0.0000 0.0000 0.0000 -28.9780 4.4938 1.4199 0.8281 5.8057 16.2216 0.7906 -6.6997 -15.8747 0.0179 -0.8630 -2.3720 0.0000 0.0000 0.0000 13.1453 9.2621 -30.7793 -1.3850 -7.4464 21.0447 0.1322 -8.4913 -9.0058 -0.0659 -1.6568 4.5582 -6.0666 -2.9566 1.6016 0.8492 -3.7906 3.7108 4.2093 -2.0254 3.4081 -10.7024 -0.4317 -10.9743 -1.2814 5.5821 32.0251 2.3331 2.0753 12.3155 -0.0000 0.0000 0.0000 -59.7957 6.2976 67.6857 30.4022 -41.2357 -11.6738 -0.0000 -0.0000 2.0887 1.5526 34.2170 0.8732 -7.1250 0.0000 -0.0000 -36.1867 60.3968 -14.7049 -0.0000 0.0000 0.0000 87.0082 -3.8276 11.4957 -16.5174 26.2171 -3.8717 0.0000 -0.0000 -10.6845 -12.7038 18.3221 -4.0535 7.1250 -0.0000 -0.0000 10.0581 -11.4489 7.9887
0.00 0.00 0.00 -182.9590 1.1945 -175.5850 0.0000 0.0000 0.0000 -24.1933 4.3435 12.7600 1.1702 6.8666 19.3208 -0.0942 -7.0618 -2.2295 1.7802 -8.3924 -23.9125 0.0000 0.0000 0.0000 17.0716 10.4914 -26.2347 -1.5636 -7.8910 22.3834 0.0072 -1.6299 0.0606 -0.0902 -1.9367 5.3308 -3.6757 -4.7803 1.8786 2.9067 -6.1841 4.5745 4.9199 -3.1792 4.4187 -10.3943 0.5690 -12.6735 -4.4257 8.4234 32.1260 1.5244 2.9442 12.8314 -0.0000 -0.0000 0.0000 -62.2566 6.6395 64.2856 30.1945 -41.0595 -11.5371 -0.0000 -0.0000 1.4044 -0.3124 34.7064 -0.1778 -7.1250 0.0000 -0.0000 -38.5154 60.3399 -15.7673 -0.0000 -0.0000 0.0000 86.5145 -7.7250 -13.2164 -10.0914 16.8825 -1.5014 0.0000 0.0000 4.1221 -11.3923 14.8574 -2.9576 7.1250 -0.0000 -0.0000 10.9331 -15.0233 7.8724
0.00 0.00 0.00 -181.3130 2.0518 -175.9740 0.0000 0.0000 0.0000 -21.5309 3.2481 6.0535 3.4020 11.3190 33.3636 0.4460 -3.1641 14.1726 0.3076 -3.5657 -9.8580 0.0000 0.0000 0.0000 20.1177 10.1870 -22.6241 -1.9288 -8.7163 24.9117 -0.0152 1.9622 -2.4115 -0.4474 -4.2916 11.8986 -3.0578 -4.8355 2.1934 3.8722 -6.2229 4.8027 5.6049 -3.1746 4.5345 -11.3154 0.6599 -13.0009 -3.9765 8.6526 32.1490 1.8837 2.9685 12.8515 -0.0000 0.0000 0.0000 -63.7170 7.6986 62.1356 29.9419 -40.8436 -11.3716 -0.0000 -0.0000 1.0181 -0.1717 35.8009 -0.1004 -7.1250 0.0000 -0.0000 -39.6104 61.2248 -17.1442 -0.0000 0.0000 0.0000 85.3652 -6.6311 -14.9283 -9.8487 16.5025 -1.4317 0.0000 0.0000 4.9454 -11.5533 15.2109 -3.0701 7.1250 -0.0000 -0.0000 10.8198 -14.6586 7.8737
0.00 0.00 0.00 -178.1820 1.7199 -176.0980 0.0000 0.0000 0.0000 -16.8064 0.3652 -3.5382 7.3778 15.6420 50.2892 0.7619 -4.1517 18.5072 0.0138 0.7594 2.0872 0.0000 0.0000 0.0000 24.8675 8.7938 -17.2465 -1.6663 -8.1334 23.1200 -0.0586 2.3993 -4.3627 -0.6774 -5.2628 14.6596 -0.3467 -4.5089 2.0294 4.4278 -5.7170 5.1295 4.6741 -2.7804 4.6771 -11.2205 0.0284 -13.8809 -2.7586 7.4132 32.8694 2.1980 2.4890 13.3019 0.0000 -0.0000 0.0000 -61.9686 7.0427 63.4263 30.6955 -41.4821 -11.8676 -0.0000 -0.0000 0.6881 -1.1211 34.6601 -0.6376 -7.1250 0.0000 -0.0000 -39.2389 60.1112 -15.9026 0.0000 -0.0000 0.0000 85.5717 -4.7163 -8.3467 -10.4918 17.5051 -1.6197 0.0000 0.0000 0.9394 -12.0628 15.5858 -3.2862 7.1250 -0.0000 -0.0000 10.4746 -14.2450 7.7073
0.00 0.00 0.00 -176.4390 3.8414 -176.4620 0.0000 0.0000 0.0000 -12.5237 0.5996 -17.3975 10.7094 17.7899 61.8342 -0.0350 -3.4931 2.4391 0.1411 -2.4209 -6.6705 0.0000 0.0000 0.0000 28.0195 7.0229 -9.7413 -1.4540 -7.6218 21.5710 -0.2020 5.2854 -8.2669 -0.5535 -4.7656 13.2413 0.4523 -3.3736 1.7713 4.5875 -4.2150 4.8789 4.4284 -1.9992 4.3732 -11.4575 -0.1225 -13.0094 -2.7543 7.4838 33.4615 2.2606 2.5664 13.3775 0.0000 -0.0000 0.0000 -60.9560 6.6510 65.3600 31.3968 -42.0610 -12.3348 -0.0000 0.0000 -0.7089 0.6704 35.3400 0.3878 -7.1250 0.0000 -0.0000 -38.2708 61.0742 -16.3247 0.0000 -0.0000 0.0000 84.1094 1.4066 2.8406 -11.3102 18.7622 -1.8745 0.0000 -0.0000 -1.9419 -13.8631 15.2754 -3.7201 7.1250 -0.0000 -0.0000 9.2667 -14.4115 6.7594
0.00 0.00 0.00 -173.5180 6.5564 -175.5710 0.0000 0.0000 0.0000 -8.1306 -1.9584 -30.3776 6.9790 15.3142 48.7948 0.3307 -0.6054 -10.6659 0.3918 -4.0192 -11.1307 0.0000 0.0000 0.0000 31.4450 5.2788 -0.7921 -1.1299 -6.7514 18.9808 -0.4693 7.7242 -12.5498 -0.2345 -3.1169 8.6045 3.5337 -1.6048 1.3078 4.2534 -1.8999 4.0049 2.3896 -0.7468 3.4198 -9.9755 -0.3376 -11.8728 -2.9276 6.8606 33.6915 1.8481 2.5339 13.2868 0.0000 0.0000 0.0000 -57.8757 6.6292 68.6261 32.7136 -43.1088 -13.2260 -0.0000 -0.0000 0.9521 -3.3860 33.2050 -1.8558 -7.1250 0.0000 -0.0000 -39.8543 58.4579 -14.5854 0.0000 0.0000 0.0000 83.6909 12.0624 15.3518 -14.1707 22.9782 -2.8944 0.0000 -0.0000 -8.4517 -14.5819 17.8127 -4.5500 7.1250 -0.0000 -0.0000 8.8201 -11.7780 6.9185
0.00 0.00 0.00 -172.8920 7.6832 -174.1650 0.0000 0.0000 0.0000 -6.8459 -5.0254 -32.0311 3.4637 11.4103 33.6764 0.3043 2.2053 -11.4663 0.8386 -5.8417 -16.3257 0.0000 0.0000 0.0000 31.5208 3.5274 3.8919 -0.6409 -5.1216 14.2556 -0.4885 8.0815 -12.8480 -0.2785 -3.3945 9.3791 4.4960 -0.7441 0.5537 4.0043 -0.8295 3.3141 1.6000 -0.2140 3.0940 -9.7154 -0.6754 -11.6678 -2.8178 6.2284 33.6995 1.7552 2.3134 13.2627 -0.0000 -0.0000 0.0000 -56.8575 6.5487 70.4932 32.5347 -42.9693 -13.1038 -0.0000 -0.0000 0.5529 4.6198 34.1009 2.5939 -7.1250 0.0000 -0.0000 -33.0414 61.0403 -13.7590 -0.0000 -0.0000 0.0000 82.8163 15.9453 21.1162 -16.6986 26.4587 -3.9521 0.0000 -0.0000 -11.9473 -14.6330 18.5886 -4.7577 7.1250 -0.0000 -0.0000 8.8054 -10.9873 7.0517
0.00 0.00 0.00 -176.4160 11.1002 -175.7110 0.0000 0.0000 0.0000 -15.0558 -4.7927 -26.7664 2.4904 9.8204 28.3971 0.0341 -0.7800 -3.3012 0.6373 -5.1077 -14.2161 0.0000 0.0000 0.0000 23.4164 3.9408 6.6950 -4.1244 -12.3241 36.8883 -0.1007 -1.4078 5.6656 -0.0634 -1.6247 4.4695 2.3012 0.4642 -0.7103 2.6948 0.6692 4.2155 1.5379 0.4621 4.7421 -11.1957 -1.1966 -11.4831 -2.0314 6.5314 36.1626 2.4635 2.4075 14.2921 -0.0000 -0.0000 0.0000 -57.2573 8.8922 70.9235 31.6007 -42.2265 -12.4717 -0.0000 -0.0000 0.9794 2.6465 34.4910 1.4994 -7.1250 0.0000 -0.0000 -35.4083 60.8805 -14.7513 -0.0000 -0.0000 0.0000 82.4664 22.2271 25.5990 -23.4056 34.5294 -7.3669 0.0000 -0.0000 -15.4616 -14.8594 20.9044 -5.4080 7.1250 -0.0000 -0.0000 8.7374 -8.6198 7.4183
0.00 0.00 0.00 -179.8750 12.1015 -177.5160 0.0000 0.0000 0.0000 -20.6552 -2.1865 -21.0480 2.1519 9.1756 26.3463 0.1239 -1.3731 -6.3099 0.5006 -4.5358 -12.5891 0.0000 0.0000 0.0000 18.7064 6.2503 -0.9869 -7.9962 -16.1165 52.5490 -0.1723 -5.0492 7.6737 -0.0084 -0.5918 1.6262 -0.9127 -0.0966 0.0067 2.2008 0.0801 5.3710 2.8125 0.0574 5.5535 -13.8917 -0.9033 -14.7775 -0.7741 8.0157 37.5324 3.8062 2.6221 15.5040 0.0000 0.0000 0.0000 -59.5897 8.6177 66.7216 30.6633 -41.4552 -11.8463 -0.0000 -0.0000 0.7874 2.5966 34.4509 1.4696 -7.1250 0.0000 -0.0000 -35.4145 60.8360 -14.7164 0.0000 0.0000 0.0000 82.5751 23.8994 26.4921 -21.6944 32.6299 -6.4203 0.0000 -0.0000 -14.9176 -12.6150 19.9624 -4.3693 7.1250 -0.0000 -0.0000 10.1429 -9.8152 8.4017
0.00 0.00 0.00 -177.0680 9.2926 -175.3960 0.0000 0.0000 0.0000 -13.7807 -6.6544 -27.1547 2.3703 9.5981 27.6848 0.0211 -1.5770 -2.6415 0.2345 -3.1167 -8.6037 0.0000 0.0000 0.0000 23.5179 2.9190 10.9010 -2.8326 -10.4190 30.3447 -0.0039 -0.2202 1.1159 -0.0446 1.3634 -3.7492 2.2742 -0.1435 -0.8376 2.5390 -0.1788 3.1410 1.3383 0.0042 3.7022 -8.5286 -0.3858 -11.9781 -3.6266 6.6589 33.6260 1.3102 2.5529 13.3450 -0.0000 -0.0000 0.0000 -55.7154 5.6715 75.8766 32.1035 -42.6295 -12.8108 -0.0000 0.0000 -1.4536 -5.2324 33.5506 -2.8974 -7.1250 0.0000 -0.0000 -41.9225 58.3116 -15.3706 -0.0000 -0.0000 0.0000 82.0352 16.0265 26.6559 -24.7424 35.9395 -8.1382 0.0000 -0.0000 -16.4445 -14.7885 21.0843 -5.4251 7.1250 -0.0000 -0.0000 8.7899 -8.4465 7.4945
